<svg xmlns="http://www.w3.org/2000/svg" width="32" height="32"><title/><g><title>background</title><rect id="canvas_background" width="582" height="402" x="-1" y="-1" fill="none"/></g><g><title>Layer 1</title><path id="svg_1" fill="#fff" stroke-width="0" d="m31.044643,16.044643a15,15 0 1 1 -15,-15a15,15 0 0 1 15,15zm-28,0a13,13 0 1 0 13,-13a13,13 0 0 0 -13,13z"/><path id="svg_2" fill="#fff" stroke-width="0" d="m19.914643,10.41l-5.58,5.59l5.58,5.59a1,1 0 0 1 0,1.41l0,0a1,1 0 0 1 -1.41,0l-6.36,-6.36a0.91,0.91 0 0 1 0,-1.28l6.36,-6.36a1,1 0 0 1 1.41,0l0,0a1,1 0 0 1 0,1.41z"/></g></svg>